<svg width="24" height="24" viewBox="0 0 24 24" fill="none" xmlns="http://www.w3.org/2000/svg">
<path d="M11.99 22C6.468 21.994 1.996 17.515 2 11.993C2.004 6.472 6.482 1.998 12.003 2C17.525 2.002 22 6.478 22 12C21.997 17.525 17.515 22.002 11.99 22ZM4 12.172C4.02273 14.2862 4.88145 16.3054 6.38848 17.7883C7.89551 19.2712 9.92829 20.0972 12.0425 20.0859C14.1568 20.0745 16.1806 19.2267 17.6716 17.7276C19.1626 16.2286 19.9995 14.2003 19.9995 12.086C19.9995 9.97172 19.1626 7.94341 17.6716 6.44437C16.1806 4.94533 14.1568 4.09748 12.0425 4.08612C9.92829 4.07475 7.89551 4.9008 6.38848 6.38372C4.88145 7.86664 4.02273 9.88584 4 12V12.172ZM13 17H11V15H13V17ZM13 13H11V7H13V13Z" fill="#FF2F2F"/>
</svg>
