<svg width="600" height="132" viewBox="0 0 600 132" fill="none" xmlns="http://www.w3.org/2000/svg">
<path fill-rule="evenodd" clip-rule="evenodd" d="M7.75 0C3.46979 0 0 3.46979 0 7.74999V123.757C0 128.037 3.46981 131.507 7.75001 131.507H238.825C243.106 131.507 246.575 128.037 246.575 123.757V7.75C246.575 3.46979 243.106 0 238.825 0H7.75ZM49.6748 98H66.2288L68.2748 86.189H77.4818L79.8068 72.797H70.5998L72.9248 60.056H57.5798L55.2548 72.797H45.3038L46.2338 67.403L73.1108 32.9H55.4408L29.1218 64.706L25.3088 86.189H51.7208L49.6748 98ZM142.309 50.105C142.309 36.961 134.993 30.389 120.361 30.389C102.877 30.389 92.5233 39.627 89.2993 58.103L87.0673 71.123C86.5713 74.161 86.3233 76.982 86.3233 79.586C86.3233 84.98 87.4703 89.258 89.7643 92.42C93.1743 97.008 99.3433 99.302 108.271 99.302C117.261 99.302 124.267 96.977 129.289 92.327C134.373 87.677 137.721 80.609 139.333 71.123L141.565 58.103C142.061 55.189 142.309 52.523 142.309 50.105ZM110.782 84.887C105.76 84.887 103.249 82.159 103.249 76.703C103.249 75.029 103.435 73.045 103.807 70.751L106.039 58.475C107.651 49.485 111.619 44.928 117.943 44.804C122.903 44.804 125.383 47.594 125.383 53.174C125.383 54.662 125.197 56.429 124.825 58.475L122.686 70.751C121.756 76.083 120.299 79.772 118.315 81.818C116.393 83.864 113.882 84.887 110.782 84.887ZM169.013 98H185.567L187.613 86.189H196.82L199.145 72.797H189.938L192.263 60.056H176.918L174.593 72.797H164.642L165.572 67.403L192.449 32.9H174.779L148.46 64.706L144.647 86.189H171.059L169.013 98Z" fill="#003CB0"/>
<path d="M317.186 82.1265L318.681 82.2496L318.815 80.6265H317.186V82.1265ZM314.071 89.892L312.86 89.0062L312.858 89.0088L314.071 89.892ZM306.166 96.1695L306.812 97.5231L306.822 97.5183L306.166 96.1695ZM280.358 95.379L281.105 94.0779L281.105 94.0779L280.358 95.379ZM271.43 86.358L270.119 87.0873L270.124 87.0954L271.43 86.358ZM271.477 59.8065L272.78 60.5484L272.783 60.5439L271.477 59.8065ZM280.451 50.7855L281.193 52.0891L281.193 52.0891L280.451 50.7855ZM306.491 50.7855L305.726 52.0756L305.726 52.0756L306.491 50.7855ZM314.954 59.7135L313.626 60.4103L313.628 60.4148L314.954 59.7135ZM317.884 74.5005L319.383 74.5581L319.383 74.5581L317.884 74.5005ZM317.744 76.128V77.628H318.947L319.208 76.4534L317.744 76.128ZM276.08 76.128V74.628H274.384L274.591 76.3116L276.08 76.128ZM281.614 87.3345L282.598 86.2028L282.598 86.2028L281.614 87.3345ZM302.306 89.985L302.883 91.3696L302.891 91.3662L302.899 91.3627L302.306 89.985ZM307.328 86.4045L306.159 85.4643L306.153 85.4721L306.147 85.48L307.328 86.4045ZM309.281 82.1265V80.6265H307.935L307.79 81.9644L309.281 82.1265ZM281.986 58.551L282.931 59.7155L282.938 59.7099L281.986 58.551ZM276.22 69.06L274.738 68.8234L274.461 70.56H276.22V69.06ZM309.421 69.06V70.56H311.03L310.917 68.9548L309.421 69.06ZM305.003 58.923L303.913 59.9533L303.919 59.9593L305.003 58.923ZM315.691 82.0034C315.501 84.3141 314.588 86.6443 312.86 89.0062L315.281 90.7777C317.273 88.0557 318.437 85.2089 318.681 82.2496L315.691 82.0034ZM312.858 89.0088C311.204 91.2805 308.78 93.2295 305.509 94.8206L306.822 97.5183C310.433 95.7615 313.28 93.5254 315.283 90.7751L312.858 89.0088ZM305.519 94.8159C302.334 96.337 298.337 97.134 293.471 97.134V100.134C298.649 100.134 303.116 99.288 306.812 97.5231L305.519 94.8159ZM293.471 97.134C288.736 97.134 284.63 96.1005 281.105 94.0779L279.612 96.68C283.651 98.9975 288.286 100.134 293.471 100.134V97.134ZM281.105 94.0779C277.56 92.0438 274.776 89.2329 272.736 85.6206L270.124 87.0954C272.425 91.1711 275.593 94.3741 279.612 96.68L281.105 94.0779ZM272.741 85.6286C270.742 82.0363 269.722 77.8761 269.722 73.1055H266.722C266.722 78.3169 267.84 82.9917 270.119 87.0873L272.741 85.6286ZM269.722 73.1055C269.722 68.2727 270.757 64.1029 272.78 60.5484L270.173 59.0645C267.856 63.136 266.722 67.8323 266.722 73.1055H269.722ZM272.783 60.5439C274.82 56.9347 277.617 54.124 281.193 52.0891L279.709 49.4818C275.659 51.7869 272.473 54.9903 270.17 59.0691L272.783 60.5439ZM281.193 52.0891C284.755 50.0623 288.849 49.0305 293.518 49.0305V46.0305C288.39 46.0305 283.774 47.1686 279.709 49.4818L281.193 52.0891ZM293.518 49.0305C298.287 49.0305 302.337 50.0652 305.726 52.0756L307.256 49.4954C303.329 47.1657 298.731 46.0305 293.518 46.0305V49.0305ZM305.726 52.0756C309.144 54.1032 311.77 56.8733 313.626 60.4103L316.282 59.0166C314.17 54.9896 311.155 51.8078 307.256 49.4954L305.726 52.0756ZM313.628 60.4148C315.484 63.9225 316.43 67.9542 316.43 72.5475H319.43C319.43 67.5307 318.393 63.0064 316.28 59.0121L313.628 60.4148ZM316.43 72.5475C316.43 73.0162 316.415 73.6458 316.385 74.4428L319.383 74.5581C319.414 73.7432 319.43 73.0708 319.43 72.5475H316.43ZM316.385 74.4428C316.353 75.2656 316.308 75.6759 316.28 75.8026L319.208 76.4534C319.304 76.0221 319.352 75.3473 319.383 74.5581L316.385 74.4428ZM317.744 74.628H276.08V77.628H317.744V74.628ZM274.591 76.3116C275.218 81.3865 277.203 85.4855 280.629 88.4661L282.598 86.2028C279.824 83.7895 278.121 80.4175 277.569 75.9443L274.591 76.3116ZM280.629 88.4661C284.056 91.4475 288.46 92.88 293.704 92.88V89.88C289.027 89.88 285.371 88.6154 282.598 86.2028L280.629 88.4661ZM293.704 92.88C297.323 92.88 300.406 92.4019 302.883 91.3696L301.729 88.6004C299.743 89.4281 297.09 89.88 293.704 89.88V92.88ZM302.899 91.3627C305.286 90.3349 307.195 89.0091 308.509 87.3289L306.147 85.48C305.23 86.6519 303.79 87.713 301.713 88.6072L302.899 91.3627ZM308.497 87.3446C309.774 85.7564 310.579 84.0683 310.772 82.2886L307.79 81.9644C307.673 83.0366 307.176 84.2006 306.159 85.4643L308.497 87.3446ZM309.281 83.6265H317.186V80.6265H309.281V83.6265ZM293.611 53.1915C288.696 53.1915 284.47 54.568 281.033 57.3921L282.938 59.7099C285.764 57.3879 289.288 56.1915 293.611 56.1915V53.1915ZM281.04 57.3864C277.587 60.1898 275.502 64.0421 274.738 68.8234L277.701 69.2966C278.363 65.1499 280.122 61.9961 282.931 59.7155L281.04 57.3864ZM276.22 70.56H309.421V67.56H276.22V70.56ZM310.917 68.9548C310.614 64.6496 309.003 60.9379 306.088 57.8867L303.919 59.9593C306.335 62.4881 307.669 65.5344 307.924 69.1652L310.917 68.9548ZM306.093 57.8927C303.072 54.6957 298.834 53.1915 293.611 53.1915V56.1915C298.245 56.1915 301.602 57.5082 303.913 59.9533L306.093 57.8927ZM330.251 97.6575H328.751V99.1575H330.251V97.6575ZM330.251 48.2745V46.7745H328.751V48.2745H330.251ZM338.156 48.2745H339.656V46.7745H338.156V48.2745ZM338.156 55.5285H336.656V59.8694L339.336 56.4545L338.156 55.5285ZM345.317 49.716L345.988 51.0576L345.994 51.0547L345.317 49.716ZM368.288 52.3665L367.263 53.4611L367.268 53.4657L368.288 52.3665ZM373.496 97.6575V99.1575H374.996V97.6575H373.496ZM365.591 97.6575H364.091V99.1575H365.591V97.6575ZM362.615 58.551L361.467 59.5158L361.474 59.5247L362.615 58.551ZM345.55 57.1095L346.319 58.3973L346.324 58.3942L345.55 57.1095ZM340.156 62.55L338.866 61.7834L338.863 61.7887L340.156 62.55ZM338.156 97.6575V99.1575H339.656V97.6575H338.156ZM331.751 97.6575V48.2745H328.751V97.6575H331.751ZM330.251 49.7745H338.156V46.7745H330.251V49.7745ZM336.656 48.2745V55.5285H339.656V48.2745H336.656ZM339.336 56.4545C341.118 54.1843 343.329 52.3869 345.988 51.0576L344.646 48.3743C341.601 49.897 339.039 51.9746 336.976 54.6024L339.336 56.4545ZM345.994 51.0547C348.665 49.7046 351.502 49.0305 354.524 49.0305V46.0305C351.036 46.0305 347.735 46.8134 344.641 48.3772L345.994 51.0547ZM354.524 49.0305C359.965 49.0305 364.157 50.5514 367.263 53.4611L369.314 51.2719C365.537 47.7335 360.553 46.0305 354.524 46.0305V49.0305ZM367.268 53.4657C370.372 56.3488 371.996 60.3796 371.996 65.7585H374.996C374.996 59.7294 373.148 54.8322 369.309 51.2673L367.268 53.4657ZM371.996 65.7585V97.6575H374.996V65.7585H371.996ZM373.496 96.1575H365.591V99.1575H373.496V96.1575ZM367.091 97.6575V67.851H364.091V97.6575H367.091ZM367.091 67.851C367.091 63.7172 366.029 60.2402 363.756 57.5773L361.474 59.5247C363.17 61.5118 364.091 64.2347 364.091 67.851H367.091ZM363.764 57.5862C361.409 54.7826 357.644 53.5635 352.897 53.5635V56.5635C357.201 56.5635 359.916 57.6693 361.467 59.5158L363.764 57.5862ZM352.897 53.5635C349.988 53.5635 347.271 54.3203 344.775 55.8248L346.324 58.3942C348.354 57.1706 350.535 56.5635 352.897 56.5635V53.5635ZM344.781 55.8217C342.329 57.286 340.354 59.281 338.866 61.7834L341.445 63.3166C342.685 61.2309 344.307 59.599 346.319 58.3973L344.781 55.8217ZM338.863 61.7887C337.384 64.2994 336.656 67.1078 336.656 70.176H339.656C339.656 67.6022 340.261 65.3265 341.448 63.3113L338.863 61.7887ZM336.656 70.176V97.6575H339.656V70.176H336.656ZM338.156 96.1575H330.251V99.1575H338.156V96.1575ZM418.813 94.635L418.694 96.1302L418.697 96.1304L418.813 94.635ZM428.532 97.518L427.722 98.7802L427.731 98.786L427.74 98.7917L428.532 97.518ZM426.253 114.955L425.465 113.68L426.253 114.955ZM389.89 115.281L390.637 113.98L390.629 113.976L389.89 115.281ZM384.31 102.679L382.887 102.205L382.878 102.233L382.87 102.261L384.31 102.679ZM385.333 100.401L385.553 98.9172L384.587 98.774L384.065 99.6L385.333 100.401ZM392.866 101.517L394.079 102.399L395.536 100.396L393.086 100.033L392.866 101.517ZM392.122 103.051L390.713 102.539L390.699 102.576L390.687 102.615L392.122 103.051ZM396.028 110.724L396.54 109.314L396.533 109.311L396.526 109.309L396.028 110.724ZM420.813 110.491L421.408 111.869L421.408 111.869L420.813 110.491ZM422.347 101.935L422.766 100.495L422.758 100.493L422.749 100.49L422.347 101.935ZM416.116 100.959L416.229 99.4632L416.227 99.4631L416.116 100.959ZM397.33 99.564L397.212 101.059L397.219 101.06L397.33 99.564ZM389.658 96.681L388.671 97.8109L388.681 97.8193L388.691 97.8274L389.658 96.681ZM388.402 85.242L387.172 84.3833L387.169 84.3882L388.402 85.242ZM391.843 81.7545L392.61 83.0438L394.383 81.9895L392.834 80.6277L391.843 81.7545ZM388.449 57.342L387.17 56.5587L387.167 56.5625L388.449 57.342ZM396.168 50.181L396.869 51.5073L396.878 51.5021L396.168 50.181ZM417.93 49.7625L417.253 51.1013L417.259 51.1041L417.93 49.7625ZM424.765 55.11L423.572 56.0185L425.785 58.9256L426.253 55.3023L424.765 55.11ZM425.649 48.2745V46.7745H424.33L424.161 48.0822L425.649 48.2745ZM433.089 48.2745L434.571 48.5084L434.844 46.7745H433.089V48.2745ZM430.02 67.7115L428.538 67.4775L428.537 67.4834L430.02 67.7115ZM426.532 77.5695L427.815 78.3472L427.819 78.3412L426.532 77.5695ZM419.278 84.5445L420.012 85.8526L420.017 85.8501L419.278 84.5445ZM397.144 85.056L397.734 83.6766L396.937 83.3363L396.244 83.856L397.144 85.056ZM395.424 86.7765L394.237 85.8593L394.224 85.8766L394.211 85.8942L395.424 86.7765ZM396.028 91.845L395.072 93.0006L395.084 93.0105L395.096 93.0202L396.028 91.845ZM401.376 93.24L401.254 94.735L401.256 94.7352L401.376 93.24ZM418.534 76.7325L417.559 75.5926L417.552 75.5985L418.534 76.7325ZM397.516 58.1325L398.503 59.2621L398.503 59.2621L397.516 58.1325ZM397.33 76.7325L396.347 77.8656L396.355 77.8723L397.33 76.7325ZM418.697 96.1304C422.497 96.4273 425.477 97.3392 427.722 98.7802L429.342 96.2557C426.565 94.4727 423.066 93.4626 418.93 93.1395L418.697 96.1304ZM427.74 98.7917C429.752 100.043 430.845 102.075 430.845 105.237H433.845C433.845 101.269 432.396 98.1549 429.324 96.2442L427.74 98.7917ZM430.845 105.237C430.845 108.573 429.188 111.377 425.465 113.68L427.042 116.231C431.441 113.512 433.845 109.837 433.845 105.237H430.845ZM425.465 113.68C421.758 115.971 415.896 117.222 407.653 117.222V120.222C416.089 120.222 422.626 118.962 427.042 116.231L425.465 113.68ZM407.653 117.222C399.911 117.222 394.301 116.082 390.637 113.98L389.144 116.582C393.478 119.068 399.71 120.222 407.653 120.222V117.222ZM390.629 113.976C387.007 111.926 385.392 109.277 385.392 105.981H382.392C382.392 110.558 384.776 114.11 389.152 116.586L390.629 113.976ZM385.392 105.981C385.392 104.85 385.519 103.895 385.751 103.098L382.87 102.261C382.543 103.386 382.392 104.632 382.392 105.981H385.392ZM385.733 103.154C386.019 102.296 386.314 101.657 386.602 101.202L384.065 99.6C383.608 100.323 383.221 101.203 382.887 102.205L385.733 103.154ZM385.114 101.885L392.647 103.001L393.086 100.033L385.553 98.9172L385.114 101.885ZM391.653 100.635C391.284 101.142 390.979 101.805 390.713 102.539L393.532 103.564C393.761 102.934 393.952 102.574 394.079 102.399L391.653 100.635ZM390.687 102.615C390.418 103.499 390.297 104.473 390.297 105.516H393.297C393.297 104.699 393.393 104.03 393.557 103.488L390.687 102.615ZM390.297 105.516C390.297 107.061 390.744 108.459 391.691 109.624C392.62 110.768 393.945 111.581 395.531 112.139L396.526 109.309C395.291 108.875 394.5 108.324 394.019 107.732C393.555 107.161 393.297 106.451 393.297 105.516H390.297ZM395.517 112.134C398.579 113.245 402.781 113.758 408.025 113.758V110.758C402.915 110.758 399.119 110.249 396.54 109.314L395.517 112.134ZM408.025 113.758C413.869 113.758 418.387 113.173 421.408 111.869L420.218 109.114C417.783 110.166 413.775 110.758 408.025 110.758V113.758ZM421.408 111.869C424.384 110.583 426.405 108.586 426.405 105.702H423.405C423.405 106.848 422.698 108.044 420.218 109.114L421.408 111.869ZM426.405 105.702C426.405 104.491 426.149 103.352 425.506 102.406C424.852 101.442 423.894 100.823 422.766 100.495L421.928 103.376C422.506 103.544 422.827 103.8 423.025 104.092C423.235 104.401 423.405 104.898 423.405 105.702H426.405ZM422.749 100.49C420.949 99.9904 418.768 99.6537 416.229 99.4632L416.004 102.455C418.424 102.636 420.397 102.951 421.946 103.381L422.749 100.49ZM416.227 99.4631L397.441 98.0681L397.219 101.06L416.005 102.455L416.227 99.4631ZM397.449 98.0687C394.563 97.8401 392.323 96.967 390.625 95.5345L388.691 97.8274C390.961 99.7429 393.835 100.792 397.212 101.059L397.449 98.0687ZM390.644 95.551C388.991 94.1076 388.228 92.4472 388.228 90.4965H385.228C385.228 93.3818 386.419 95.8444 388.671 97.8109L390.644 95.551ZM388.228 90.4965C388.228 88.9223 388.687 87.4667 389.636 86.0958L387.169 84.3882C385.886 86.2412 385.228 88.2886 385.228 90.4965H388.228ZM389.632 86.1006C390.713 84.5527 391.715 83.5761 392.61 83.0438L391.077 80.4652C389.678 81.2968 388.386 82.6452 387.172 84.3833L389.632 86.1006ZM392.834 80.6277C389.094 77.3416 387.205 73.0236 387.205 67.5255H384.205C384.205 73.8074 386.409 78.9753 390.853 82.8812L392.834 80.6277ZM387.205 67.5255C387.205 63.9971 388.055 60.876 389.73 58.1215L387.167 56.5625C385.185 59.8219 384.205 63.4898 384.205 67.5255H387.205ZM389.728 58.1252C391.441 55.327 393.81 53.1232 396.869 51.5073L395.467 48.8547C391.954 50.7108 389.176 53.2809 387.17 56.5587L389.728 58.1252ZM396.878 51.5021C399.917 49.8679 403.434 49.0305 407.467 49.0305V46.0305C403.007 46.0305 398.99 46.96 395.457 48.8599L396.878 51.5021ZM407.467 49.0305C411.314 49.0305 414.56 49.7402 417.253 51.1013L418.606 48.4237C415.41 46.8088 411.681 46.0305 407.467 46.0305V49.0305ZM417.259 51.1041C420.085 52.5169 422.162 54.167 423.572 56.0185L425.959 54.2014C424.206 51.899 421.727 49.9841 418.601 48.4208L417.259 51.1041ZM426.253 55.3023L427.136 48.4668L424.161 48.0822L423.278 54.9177L426.253 55.3023ZM425.649 49.7745H433.089V46.7745H425.649V49.7745ZM431.607 48.0405L428.538 67.4775L431.502 67.9454L434.571 48.5084L431.607 48.0405ZM428.537 67.4834C428.007 70.9315 426.906 74.0307 425.246 76.7977L427.819 78.3412C429.692 75.2183 430.917 71.7455 431.502 67.9396L428.537 67.4834ZM425.25 76.7917C423.621 79.4783 421.393 81.6248 418.54 83.2389L420.017 85.8501C423.301 83.9922 425.91 81.4887 427.815 78.3472L425.25 76.7917ZM418.544 83.2364C415.786 84.7842 412.29 85.602 407.979 85.602V88.602C412.658 88.602 416.694 87.7148 420.012 85.8525L418.544 83.2364ZM407.979 85.602C404.119 85.602 400.713 84.9492 397.734 83.6766L396.555 86.4354C399.962 87.8907 403.779 88.602 407.979 88.602V85.602ZM396.244 83.856C395.505 84.4104 394.837 85.0823 394.237 85.8593L396.611 87.6936C397.064 87.1066 397.544 86.6315 398.044 86.256L396.244 83.856ZM394.211 85.8942C393.538 86.8199 393.18 87.8702 393.18 89.0085H396.18C396.18 88.5348 396.318 88.097 396.637 87.6587L394.211 85.8942ZM393.18 89.0085C393.18 90.6113 393.836 91.9773 395.072 93.0006L396.985 90.6894C396.423 90.2246 396.18 89.6996 396.18 89.0085H393.18ZM395.096 93.0202C395.778 93.5611 396.676 93.9229 397.661 94.1799C398.665 94.4418 399.87 94.6223 401.254 94.735L401.498 91.7449C400.216 91.6406 399.197 91.4802 398.418 91.277C397.621 91.069 397.177 90.8418 396.96 90.6697L395.096 93.0202ZM401.256 94.7352L418.694 96.1302L418.933 93.1397L401.495 91.7447L401.256 94.7352ZM407.932 81.534C412.693 81.534 416.62 80.3746 419.516 77.8665L417.552 75.5985C415.365 77.4924 412.224 78.534 407.932 78.534V81.534ZM419.509 77.8723C422.482 75.3293 423.894 71.7429 423.894 67.3395H420.894C420.894 71.0581 419.733 73.7336 417.559 75.5926L419.509 77.8723ZM423.894 67.3395C423.894 63.069 422.469 59.538 419.533 56.9198L417.536 59.1591C419.746 61.129 420.894 63.798 420.894 67.3395H423.894ZM419.533 56.9198C416.612 54.3157 412.7 53.0985 407.979 53.0985V56.0985C412.186 56.0985 415.311 57.1753 417.536 59.1591L419.533 56.9198ZM407.979 53.0985C403.412 53.0985 399.551 54.3634 396.53 57.0028L398.503 59.2621C400.876 57.1896 403.99 56.0985 407.979 56.0985V53.0985ZM396.53 57.0028C393.477 59.669 391.971 63.2111 391.971 67.479H394.971C394.971 63.9968 396.161 61.3079 398.503 59.2621L396.53 57.0028ZM391.971 67.479C391.971 71.7757 393.393 75.3029 396.347 77.8656L398.313 75.5994C396.121 73.6981 394.971 71.0563 394.971 67.479H391.971ZM396.355 77.8723C399.278 80.3726 403.198 81.534 407.932 81.534V78.534C403.676 78.534 400.529 77.4943 398.305 75.5926L396.355 77.8723ZM444.563 35.7195L443.63 36.8941L443.649 36.9092L443.668 36.9236L444.563 35.7195ZM444.563 29.0235L445.474 30.215L445.479 30.2111L444.563 29.0235ZM452.142 29.0235L451.209 30.1981L451.22 30.2067L451.231 30.215L452.142 29.0235ZM452.142 35.7195L453.053 36.911L453.064 36.9027L453.075 36.8941L452.142 35.7195ZM444.423 97.6575H442.923V99.1575H444.423V97.6575ZM444.423 48.2745V46.7745H442.923V48.2745H444.423ZM452.235 48.2745H453.735V46.7745H452.235V48.2745ZM452.235 97.6575V99.1575H453.735V97.6575H452.235ZM448.376 35.4285C447.214 35.4285 446.263 35.1139 445.457 34.5154L443.668 36.9236C445.032 37.937 446.623 38.4285 448.376 38.4285V35.4285ZM445.496 34.5448C444.824 34.0113 444.482 33.3248 444.482 32.325H441.482C441.482 34.1771 442.194 35.7536 443.63 36.8941L445.496 34.5448ZM444.482 32.325C444.482 31.3692 444.813 30.7207 445.474 30.215L443.652 27.8319C442.205 28.9383 441.482 30.4907 441.482 32.325H444.482ZM445.479 30.2111C446.284 29.5899 447.228 29.268 448.376 29.268V26.268C446.61 26.268 445.011 26.783 443.647 27.8358L445.479 30.2111ZM448.376 29.268C449.524 29.268 450.443 29.5897 451.209 30.1981L453.075 27.8488C451.733 26.7833 450.142 26.268 448.376 26.268V29.268ZM451.231 30.215C451.892 30.7207 452.223 31.3692 452.223 32.325H455.223C455.223 30.4907 454.5 28.9383 453.053 27.8319L451.231 30.215ZM452.223 32.325C452.223 33.3248 451.881 34.0113 451.209 34.5448L453.075 36.8941C454.511 35.7536 455.223 34.1771 455.223 32.325H452.223ZM451.231 34.5279C450.465 35.114 449.538 35.4285 448.376 35.4285V38.4285C450.128 38.4285 451.712 37.9369 453.053 36.911L451.231 34.5279ZM445.923 97.6575V48.2745H442.923V97.6575H445.923ZM444.423 49.7745H452.235V46.7745H444.423V49.7745ZM450.735 48.2745V97.6575H453.735V48.2745H450.735ZM452.235 96.1575H444.423V99.1575H452.235V96.1575ZM466.936 97.6575H465.436V99.1575H466.936V97.6575ZM466.936 48.2745V46.7745H465.436V48.2745H466.936ZM474.841 48.2745H476.341V46.7745H474.841V48.2745ZM474.841 55.5285H473.341V59.8694L476.021 56.4545L474.841 55.5285ZM482.002 49.716L482.673 51.0576L482.678 51.0547L482.002 49.716ZM504.973 52.3665L503.947 53.4611L503.952 53.4657L504.973 52.3665ZM510.181 97.6575V99.1575H511.681V97.6575H510.181ZM502.276 97.6575H500.776V99.1575H502.276V97.6575ZM499.3 58.551L498.151 59.5158L498.159 59.5247L499.3 58.551ZM482.234 57.1095L483.003 58.3973L483.009 58.3942L482.234 57.1095ZM476.84 62.55L475.551 61.7834L475.548 61.7887L476.84 62.55ZM474.841 97.6575V99.1575H476.341V97.6575H474.841ZM468.436 97.6575V48.2745H465.436V97.6575H468.436ZM466.936 49.7745H474.841V46.7745H466.936V49.7745ZM473.341 48.2745V55.5285H476.341V48.2745H473.341ZM476.021 56.4545C477.802 54.1843 480.014 52.3869 482.673 51.0576L481.331 48.3743C478.286 49.897 475.723 51.9746 473.661 54.6024L476.021 56.4545ZM482.678 51.0547C485.35 49.7046 488.187 49.0305 491.209 49.0305V46.0305C487.721 46.0305 484.42 46.8134 481.325 48.3772L482.678 51.0547ZM491.209 49.0305C496.65 49.0305 500.842 50.5514 503.947 53.4611L505.998 51.2719C502.222 47.7335 497.238 46.0305 491.209 46.0305V49.0305ZM503.952 53.4657C507.057 56.3488 508.681 60.3796 508.681 65.7585H511.681C511.681 59.7294 509.833 54.8322 505.993 51.2673L503.952 53.4657ZM508.681 65.7585V97.6575H511.681V65.7585H508.681ZM510.181 96.1575H502.276V99.1575H510.181V96.1575ZM503.776 97.6575V67.851H500.776V97.6575H503.776ZM503.776 67.851C503.776 63.7172 502.713 60.2402 500.441 57.5773L498.159 59.5247C499.854 61.5118 500.776 64.2347 500.776 67.851H503.776ZM500.448 57.5862C498.093 54.7826 494.329 53.5635 489.581 53.5635V56.5635C493.886 56.5635 496.6 57.6693 498.151 59.5158L500.448 57.5862ZM489.581 53.5635C486.673 53.5635 483.956 54.3203 481.46 55.8248L483.009 58.3942C485.039 57.1706 487.22 56.5635 489.581 56.5635V53.5635ZM481.465 55.8217C479.013 57.286 477.039 59.281 475.551 61.7834L478.13 63.3166C479.37 61.2309 480.991 59.599 483.003 58.3973L481.465 55.8217ZM475.548 61.7887C474.069 64.2994 473.341 67.1078 473.341 70.176H476.341C476.341 67.6022 476.946 65.3265 478.133 63.3113L475.548 61.7887ZM473.341 70.176V97.6575H476.341V70.176H473.341ZM474.841 96.1575H466.936V99.1575H474.841V96.1575ZM571.029 82.1265L572.524 82.2496L572.658 80.6265H571.029V82.1265ZM567.913 89.892L566.703 89.0062L566.701 89.0088L567.913 89.892ZM560.008 96.1695L560.655 97.5231L560.665 97.5183L560.008 96.1695ZM534.201 95.379L534.947 94.0779L534.947 94.0779L534.201 95.379ZM525.273 86.358L523.962 87.0873L523.967 87.0954L525.273 86.358ZM525.319 59.8065L526.623 60.5484L526.626 60.5439L525.319 59.8065ZM534.294 50.7855L535.036 52.0891L535.036 52.0891L534.294 50.7855ZM560.334 50.7855L559.569 52.0756L559.569 52.0756L560.334 50.7855ZM568.797 59.7135L567.469 60.4103L567.471 60.4148L568.797 59.7135ZM571.726 74.5005L573.225 74.5581L573.225 74.5581L571.726 74.5005ZM571.587 76.128V77.628H572.79L573.051 76.4534L571.587 76.128ZM529.923 76.128V74.628H528.226L528.434 76.3116L529.923 76.128ZM535.456 87.3345L536.441 86.2028L536.441 86.2028L535.456 87.3345ZM556.149 89.985L556.726 91.3696L556.734 91.3662L556.742 91.3627L556.149 89.985ZM561.171 86.4045L560.002 85.4643L559.996 85.4721L559.99 85.48L561.171 86.4045ZM563.124 82.1265V80.6265H561.778L561.633 81.9644L563.124 82.1265ZM535.828 58.551L536.774 59.7155L536.781 59.7099L535.828 58.551ZM530.062 69.06L528.581 68.8234L528.304 70.56H530.062V69.06ZM563.263 69.06V70.56H564.873L564.76 68.9548L563.263 69.06ZM558.846 58.923L557.756 59.9533L557.761 59.9593L558.846 58.923ZM569.534 82.0034C569.344 84.3141 568.431 86.6443 566.703 89.0062L569.124 90.7777C571.116 88.0557 572.28 85.2089 572.524 82.2496L569.534 82.0034ZM566.701 89.0088C565.046 91.2805 562.623 93.2295 559.352 94.8206L560.665 97.5183C564.276 95.7615 567.123 93.5254 569.126 90.7751L566.701 89.0088ZM559.362 94.8159C556.176 96.337 552.18 97.134 547.314 97.134V100.134C552.492 100.134 556.959 99.288 560.655 97.5231L559.362 94.8159ZM547.314 97.134C542.579 97.134 538.472 96.1005 534.947 94.0779L533.454 96.68C537.493 98.9975 542.129 100.134 547.314 100.134V97.134ZM534.947 94.0779C531.402 92.0438 528.618 89.2329 526.579 85.6206L523.967 87.0954C526.268 91.1711 529.436 94.3741 533.454 96.68L534.947 94.0779ZM526.584 85.6286C524.585 82.0363 523.564 77.8761 523.564 73.1055H520.564C520.564 78.3169 521.683 82.9917 523.962 87.0873L526.584 85.6286ZM523.564 73.1055C523.564 68.2727 524.6 64.1029 526.623 60.5484L524.016 59.0645C521.699 63.136 520.564 67.8323 520.564 73.1055H523.564ZM526.626 60.5439C528.663 56.9347 531.46 54.124 535.036 52.0891L533.552 49.4818C529.502 51.7869 526.316 54.9903 524.013 59.0691L526.626 60.5439ZM535.036 52.0891C538.597 50.0623 542.692 49.0305 547.36 49.0305V46.0305C542.233 46.0305 537.617 47.1686 533.552 49.4818L535.036 52.0891ZM547.36 49.0305C552.129 49.0305 556.18 50.0652 559.569 52.0756L561.099 49.4954C557.172 47.1657 552.574 46.0305 547.36 46.0305V49.0305ZM559.569 52.0756C562.987 54.1032 565.613 56.8733 567.469 60.4103L570.125 59.0166C568.013 54.9896 564.997 51.8078 561.099 49.4954L559.569 52.0756ZM567.471 60.4148C569.326 63.9225 570.273 67.9542 570.273 72.5475H573.273C573.273 67.5307 572.236 63.0064 570.123 59.0121L567.471 60.4148ZM570.273 72.5475C570.273 73.0162 570.258 73.6458 570.228 74.4428L573.225 74.5581C573.257 73.7432 573.273 73.0708 573.273 72.5475H570.273ZM570.228 74.4428C570.196 75.2656 570.151 75.6759 570.123 75.8026L573.051 76.4534C573.147 76.0221 573.195 75.3473 573.225 74.5581L570.228 74.4428ZM571.587 74.628H529.923V77.628H571.587V74.628ZM528.434 76.3116C529.06 81.3865 531.046 85.4855 534.472 88.4661L536.441 86.2028C533.667 83.7895 531.964 80.4175 531.412 75.9443L528.434 76.3116ZM534.472 88.4661C537.899 91.4475 542.303 92.88 547.546 92.88V89.88C542.87 89.88 539.214 88.6154 536.441 86.2028L534.472 88.4661ZM547.546 92.88C551.166 92.88 554.248 92.4019 556.726 91.3696L555.572 88.6004C553.585 89.4281 550.933 89.88 547.546 89.88V92.88ZM556.742 91.3627C559.129 90.3349 561.037 89.0091 562.352 87.3289L559.99 85.48C559.073 86.6519 557.633 87.713 555.556 88.6072L556.742 91.3627ZM562.34 87.3446C563.617 85.7564 564.422 84.0683 564.615 82.2886L561.633 81.9644C561.516 83.0366 561.019 84.2006 560.002 85.4643L562.34 87.3446ZM563.124 83.6265H571.029V80.6265H563.124V83.6265ZM547.453 53.1915C542.538 53.1915 538.313 54.568 534.876 57.3921L536.781 59.7099C539.606 57.3879 543.13 56.1915 547.453 56.1915V53.1915ZM534.883 57.3864C531.43 60.1898 529.345 64.0421 528.581 68.8234L531.544 69.2966C532.206 65.1499 533.965 61.9961 536.774 59.7155L534.883 57.3864ZM530.062 70.56H563.263V67.56H530.062V70.56ZM564.76 68.9548C564.457 64.6496 562.846 60.9379 559.93 57.8867L557.761 59.9593C560.178 62.4881 561.512 65.5344 561.767 69.1652L564.76 68.9548ZM559.936 57.8927C556.915 54.6957 552.677 53.1915 547.453 53.1915V56.1915C552.088 56.1915 555.445 57.5082 557.756 59.9533L559.936 57.8927Z" fill="black"/>
</svg>
