<svg width="24" height="24" viewBox="0 0 24 24" fill="none" xmlns="http://www.w3.org/2000/svg">
<path d="M3.22388 8.99364L4.82388 15.3936C4.86151 15.544 4.94198 15.6801 5.05552 15.7855C5.16905 15.891 5.31077 15.9612 5.46344 15.9876C5.61612 16.0141 5.77319 15.9956 5.91556 15.9345C6.05794 15.8733 6.1795 15.7722 6.26548 15.6432L7.19988 14.2416L8.13428 15.6432C8.22025 15.7722 8.34181 15.8733 8.48419 15.9345C8.62657 15.9956 8.78363 16.0141 8.93631 15.9876C9.08899 15.9612 9.2307 15.891 9.34424 15.7855C9.45777 15.6801 9.53825 15.544 9.57588 15.3936L11.1759 8.99364L9.62388 8.60645L8.46228 13.2512L7.86548 12.3552C7.79242 12.2457 7.69344 12.1558 7.57733 12.0937C7.46122 12.0316 7.33157 11.9991 7.19988 11.9991C7.06819 11.9991 6.93853 12.0316 6.82242 12.0937C6.70631 12.1558 6.60734 12.2457 6.53428 12.3552L5.93748 13.2512L4.77588 8.60645L3.22388 8.99364V8.99364Z" fill="black"/>
<path fill-rule="evenodd" clip-rule="evenodd" d="M5.6 0C4.96348 0 4.35303 0.252856 3.90294 0.702944C3.45286 1.15303 3.2 1.76348 3.2 2.4V4.8H2.4C1.76348 4.8 1.15303 5.05286 0.702944 5.50294C0.252856 5.95303 0 6.56348 0 7.2L0 16.8C0 17.4365 0.252856 18.047 0.702944 18.4971C1.15303 18.9471 1.76348 19.2 2.4 19.2H3.2V21.6C3.2 22.2365 3.45286 22.847 3.90294 23.2971C4.35303 23.7471 4.96348 24 5.6 24H21.6C22.2365 24 22.847 23.7471 23.2971 23.2971C23.7471 22.847 24 22.2365 24 21.6V2.4C24 1.76348 23.7471 1.15303 23.2971 0.702944C22.847 0.252856 22.2365 0 21.6 0L5.6 0ZM2.4 6.4C2.18783 6.4 1.98434 6.48429 1.83431 6.63431C1.68429 6.78434 1.6 6.98783 1.6 7.2V16.8C1.6 17.0122 1.68429 17.2157 1.83431 17.3657C1.98434 17.5157 2.18783 17.6 2.4 17.6H12C12.2122 17.6 12.4157 17.5157 12.5657 17.3657C12.7157 17.2157 12.8 17.0122 12.8 16.8V7.2C12.8 6.98783 12.7157 6.78434 12.5657 6.63431C12.4157 6.48429 12.2122 6.4 12 6.4H2.4Z" fill="black"/>
</svg>
